<?xml version="1.0" encoding="utf-8"?>
<!-- Generator: Adobe Illustrator 25.0.0, SVG Export Plug-In . SVG Version: 6.00 Build 0)  -->
<svg version="1.1" id="Ebene_1" xmlns="http://www.w3.org/2000/svg" xmlns:xlink="http://www.w3.org/1999/xlink" x="0px" y="0px"
	 viewBox="0 0 910.81 171.18" style="enable-background:new 0 0 910.81 171.18;" xml:space="preserve">
<style type="text/css">
	.st0{fill:#FFFFFF;}
	.st1{fill:#1C98D5;}
</style>
<g id="icon_blue__x2B__font_white">
	<path class="st0" d="M276.76,78.56L276.76,78.56c-1.79-0.7-3.61-1.39-5.36-2.06c-11.08-4.2-21.55-8.17-21.55-14.49
		c0-4.36,2.16-7.72,6.42-9.98c3.6-1.91,8.7-2.96,14.37-2.96c8.73,0,17.23,2.18,21.12,4.34c1.39,0.76,3.34,1.09,4.64,1.09
		c3.89,0,6.71-2.94,6.71-6.99c0-2.52-1.51-4.74-4.15-6.09c-7.85-4.04-17.52-6.18-27.96-6.18c-10.01,0-19.03,2.4-25.4,6.75
		c-7.28,4.98-11.12,12.43-11.12,21.54c0,6.69,3.97,12.44,12.15,17.59c7.03,4.42,16.16,7.74,24.17,10.5
		c9.36,3.19,20.1,7.85,20.1,15.69c0,4.75-2.37,8.44-7.03,10.96c-3.73,2.01-8.94,3.17-14.29,3.17c-8.11,0-16.29-2.54-24.29-7.53
		c-1.94-1.29-3.85-1.97-5.53-1.97c-3.45,0-7.16,2.44-7.16,7.8c0,2.33,1.25,4.33,3.61,5.78c11.15,6.74,21.33,9.75,33.01,9.75
		c9.86,0,18.9-2.32,25.45-6.53c7.94-5.1,12.14-12.92,12.14-22.61C306.8,90.39,291.53,84.37,276.76,78.56z"/>
	<path class="st0" d="M331.89,35.71c-4.72,0-7.43,2.6-7.43,7.12v83.69c0,4.53,2.57,6.92,7.43,6.92c4.86,0,7.42-2.39,7.42-6.92V42.83
		C339.31,38.24,336.68,35.71,331.89,35.71z"/>
	<path class="st0" d="M582.13,49.2c-3.6-4.59-8.06-8.14-13.26-10.54c-5.4-2.49-11.61-3.76-18.45-3.76
		c-12.02,0-22.96,5.33-30.81,15.02c-7.61,9.39-11.8,22.12-11.8,35.84v78.44c0,4.61,2.52,6.95,7.49,6.95c4.47,0,7.36-2.66,7.36-6.78
		v-40.09c7.21,7.7,15.85,11.16,27.76,11.16c6.83,0,13.04-1.25,18.45-3.73c5.19-2.37,9.65-5.86,13.26-10.38
		c6.93-8.68,10.6-20.98,10.6-35.57C592.72,70.68,589.06,58.03,582.13,49.2z M578.25,85.76c0,21.61-10.93,35.57-27.83,35.57
		c-17.2,0-27.89-13.63-27.89-35.57c0-18.15,9.58-36.53,27.89-36.53C569.64,49.24,578.25,67.58,578.25,85.76z"/>
	<path class="st0" d="M616.56,0c-4.86,0-7.64,2.58-7.64,7.09v119.47c0,4.59,2.5,6.92,7.43,6.92c4.93,0,7.43-2.33,7.43-6.92V7.09
		C623.77,2.38,621.35,0,616.56,0z"/>
	<path class="st0" d="M653.73,35.71c-4.88,0-7.68,2.52-7.68,6.92v83.9c0,4.53,2.58,6.92,7.46,6.92c4.83,0,7.39-2.39,7.39-6.92v-83.9
		C660.9,38.04,658.49,35.71,653.73,35.71z"/>
	<path class="st0" d="M739.41,35.71c-4.86,0-7.64,2.52-7.64,6.92v83.9c0,4.53,2.57,6.92,7.43,6.92c4.86,0,7.42-2.39,7.42-6.92v-83.9
		C746.62,38.04,744.19,35.71,739.41,35.71z"/>
	<path class="st0" d="M839.26,109.47c-0.03,0-0.06,0-0.09,0c-2.39,0.03-4.89,1.22-7.65,3.64c-7.53,6.36-13.55,8.51-23.87,8.51
		c-14.94,0-29.61-14.49-30.02-29.45h58.84c8.94,0,10.63-5.05,10.63-14.38c0-12.64-3.69-23.34-10.66-30.93
		c-7.29-7.93-17.93-12.13-30.78-12.13c-13.16,0-24.35,5.48-32.33,15.84c-7.04,9.13-11.07,21.77-11.07,34.69
		c0,13.81,4.08,26.32,11.48,35.23c8.13,9.78,19.86,14.95,33.92,14.95c8.23,0,15.06-1.1,20.89-3.37c6.05-2.35,11.05-5.95,15.28-11
		c1.44-1.62,2.08-3.78,2.09-5.2c0.01-1.75-0.62-3.29-1.8-4.47C842.86,110.17,841.1,109.47,839.26,109.47z M777.8,78.68
		c0.29-17.22,12.4-30.12,28.39-30.12c15.38,0,26.17,12.35,26.42,30.12H777.8z"/>
	<path class="st0" d="M480.35,43.4c-6.08-5.48-14.43-8.5-23.52-8.5c-6.48,0-12.68,1.47-17.93,4.24c-5.29,2.8-9.65,6.95-12.61,12
		c-0.02,0.03-0.06,0.09-0.11,0.17c-0.14,0.22-0.38,0.59-0.7,1.12c-0.34-0.61-0.58-1.01-0.7-1.2l-0.05-0.09
		c-2.96-5.06-7.32-9.21-12.61-12c-5.25-2.78-11.44-4.24-17.93-4.24c-9.09,0-17.44,3.02-23.52,8.5c-6.22,5.61-9.64,13.48-9.64,22.17
		v60.75c0,4.47,2.44,6.74,7.24,6.74c4.85,0,7.42-2.33,7.42-6.74V71c0-13.22,7.54-21.76,19.21-21.76c14.89,0,22.48,11.87,23.4,23.65
		v53.43c0,3.7,1.59,5.93,4.71,6.65c0.73,0.17,1.55,0.26,2.44,0.26l0.05,0l0.04,0c0.89,0,1.71-0.09,2.44-0.26
		c3.13-0.72,4.72-2.95,4.72-6.65V72.89c0.92-11.78,8.52-23.65,23.4-23.65c11.67,0,19.21,8.54,19.21,21.76v55.32
		c0,4.41,2.57,6.74,7.42,6.74c4.8,0,7.24-2.27,7.24-6.74V65.57C489.99,56.88,486.57,49.01,480.35,43.4z"/>
	<path class="st0" d="M716.98,0.21c-11.84,0-19.46,2.3-24.72,7.45c-6.02,5.9-8.92,15.54-9.1,30.26l-0.01,0v88.74
		c0,4.35,2.59,6.74,7.28,6.74c4.88,0,7.57-2.39,7.57-6.74V52.29h10.1c5.52,0,8.31-2.44,8.31-7.25c0-3.23-1.38-7.08-7.97-7.08
		c-5.14,0.15-8.38,0.17-10.45,0.17v-0.03c0-7.42,0.65-12.18,2.1-15.41c1.34-2.98,3.45-4.86,7.05-6.3c3.14-1.26,6.89-1.25,11.24-1.24
		c0.37,0,0.74,0,1.12,0c4.19,0,7.6-3.2,7.6-7.14C727.12,2.83,723.71,0.21,716.98,0.21z"/>
	<path class="st0" d="M898.88,35.43c-12.13,0-19.54,2.15-24.78,7.19c-6.17,5.93-9.04,15.89-9.04,31.32v52.8
		c0,4.28,2.76,6.74,7.58,6.74c4.82,0,7.27-2.27,7.27-6.74v-52.8c0-14.15,2.22-19.58,9.15-22.35c3.14-1.26,6.9-1.25,11.24-1.24
		c0.37,0,0.74,0,1.12,0c4.19,0,7.6-3.2,7.6-7.14C909.01,38.06,905.6,35.43,898.88,35.43z"/>
	<path class="st1" d="M130.73,76.94c-2.01,0-80.91,0-83.67,0c-16.47,0-26.63-10.28-26.63-21.07S30.6,34.79,47.06,34.79
		c2.04,0,54.34,0,81.98,0c3.69,9.03,12.57,15.41,22.91,15.41c13.64,0,24.73-11.1,24.73-24.73s-11.1-24.73-24.73-24.73
		c-10.38,0-19.28,6.42-22.94,15.5c-25.83,0-76.68,0-81.93,0c-27.24,0-45.41,18.04-45.41,39.63c0,21.59,18.17,39.62,45.41,39.62
		c2.01,0,80.91,0,83.67,0c16.54,0,26.63,10.17,26.63,20.96s-10.09,20.96-26.63,20.96c-2.15,0-56.31,0-82,0
		c-3.68-9.05-12.57-15.46-22.93-15.46c-13.64,0-24.73,11.1-24.73,24.73s11.1,24.73,24.73,24.73c10.36,0,19.25-6.4,22.92-15.45
		c23.52,0,76.41,0,81.99,0c27.09,0,45.41-17.93,45.41-39.52C176.14,94.86,157.83,76.94,130.73,76.94z M151.95,15.74
		c5.36,0,9.72,4.36,9.72,9.72s-4.36,9.72-9.72,9.72s-9.72-4.36-9.72-9.72S146.59,15.74,151.95,15.74z M25.82,156.41
		c-5.36,0-9.72-4.36-9.72-9.72s4.36-9.72,9.72-9.72s9.72,4.36,9.72,9.72S31.18,156.41,25.82,156.41z"/>
</g>
</svg>
